Coordinates
version=1
nRows=4
nColumns=124
inDegrees=yes

Units are S.I. units (second, meters, Newtons, ...)
If the header above contains a line with 'inDegrees', this indicates whether rotational values are in degrees (yes) or radians (no).

endheader 
time	pelvis_tilt	pelvis_list	pelvis_rotation	pelvis_tx	pelvis_ty	pelvis_tz	hip_flexion_l	hip_adduction_l	hip_rotation_l	hip_flexion_r	hip_adduction_r	hip_rotation_r	knee_angle_l	knee_angle_r	ankle_angle_l	ankle_angle_r	subtalar_angle_l	subtalar_angle_r	mtp_angle_l	mtp_angle_r	lumbar_extension	lumbar_bending	lumbar_rotation	arm_flex_l	arm_add_l	arm_rot_l	arm_flex_r	arm_add_r	arm_rot_r	elbow_flex_l	elbow_flex_r	glut_med1_l/activation	glut_med2_l/activation	glut_med3_l/activation	glut_min1_l/activation	glut_min2_l/activation	glut_min3_l/activation	semimem_l/activation	semiten_l/activation	bifemlh_l/activation	bifemsh_l/activation	sar_l/activation	add_long_l/activation	add_brev_l/activation	add_mag1_l/activation	add_mag2_l/activation	add_mag3_l/activation	tfl_l/activation	pect_l/activation	grac_l/activation	glut_max1_l/activation	glut_max2_l/activation	glut_max3_l/activation	iliacus_l/activation	psoas_l/activation	quad_fem_l/activation	gem_l/activation	peri_l/activation	rect_fem_l/activation	vas_med_l/activation	vas_int_l/activation	vas_lat_l/activation	med_gas_l/activation	lat_gas_l/activation	soleus_l/activation	tib_post_l/activation	flex_dig_l/activation	flex_hal_l/activation	tib_ant_l/activation	per_brev_l/activation	per_long_l/activation	per_tert_l/activation	ext_dig_l/activation	ext_hal_l/activation	ercspn_l/activation	intobl_l/activation	extobl_l/activation	glut_med1_r/activation	glut_med2_r/activation	glut_med3_r/activation	glut_min1_r/activation	glut_min2_r/activation	glut_min3_r/activation	semimem_r/activation	semiten_r/activation	bifemlh_r/activation	bifemsh_r/activation	sar_r/activation	add_long_r/activation	add_brev_r/activation	add_mag1_r/activation	add_mag2_r/activation	add_mag3_r/activation	tfl_r/activation	pect_r/activation	grac_r/activation	glut_max1_r/activation	glut_max2_r/activation	glut_max3_r/activation	iliacus_r/activation	psoas_r/activation	quad_fem_r/activation	gem_r/activation	peri_r/activation	rect_fem_r/activation	vas_med_r/activation	vas_int_r/activation	vas_lat_r/activation	med_gas_r/activation	lat_gas_r/activation	soleus_r/activation	tib_post_r/activation	flex_dig_r/activation	flex_hal_r/activation	tib_ant_r/activation	per_brev_r/activation	per_long_r/activation	per_tert_r/activation	ext_dig_r/activation	ext_hal_r/activation	ercspn_r/activation	intobl_r/activation	extobl_r/activation	
          0.75788871	         -0.02320117	         -5.39378518	        -16.62057250	          0.50218286	          0.96926773	          0.01007162	         31.71542213	         -7.59684025	          3.53678101	        -14.23266200	          2.74546970	          3.64212447	        -26.24335284	        -20.90353891	         -3.31797061	          7.96075878	        -16.48308414	         -2.73086674	          0.72498931	         40.09302884	         -4.78940331	          7.74663745	         -0.58165054	         13.68252371	        -13.67427392	         -0.52797747	         -2.24401206	        -13.58921818	          9.17147484	         42.95968159	         10.55371087	          0.40329434	          0.70531131	          0.72549517	          0.42720447	          0.50931868	          0.55441944	          0.30658560	          0.36557356	          0.40814830	          0.27797932	          0.52070944	          0.08327381	          0.13417651	          0.44149170	          0.45319292	          0.49410705	          0.48328685	          0.37768702	          0.27248551	          0.62430341	          0.73798411	          0.62869790	          0.14971332	          0.15264294	          0.84814900	          0.71935930	          0.70495756	          0.45375305	          0.72179005	          0.77102728	          0.09576826	          0.05054900	          0.23185165	          0.33319193	          0.61173139	          0.57835194	          0.52993364	          0.68512895	          0.29035374	          0.13501170	          0.46938359	          0.74828474	          0.67227840	          0.05002698	          0.21768541	          0.05003593	          0.64044194	          0.41521617	          0.47192287	          0.59782909	          0.55656246	          0.51983152	          0.45182477	          0.23470428	          0.29469486	          0.44409914	          0.55154816	          0.60111374	          0.47041633	          0.50823393	          0.51475309	          0.49322244	          0.65021265	          0.54252837	          0.47782150	          0.52786348	          0.51570164	          0.49262232	          0.84484179	          0.85440408	          0.19525327	          0.43332291	          0.43622438	          0.49695830	          0.28942128	          0.30042106	          0.23748446	          0.35640484	          0.50700774	          0.14501375	          0.75347773	          0.65770724	          0.66100844	          0.05921826	          0.26142829	          0.40615435	          0.14522576	          0.05015049	          0.23415619	          0.15274155	          0.05001532	          0.05002294	
          0.78820426	         -0.67832819	         -5.14072501	        -16.59839426	          0.52942018	          0.97329311	          0.00998115	         31.11648749	         -7.27390088	          2.70472317	        -14.55124726	          2.14172572	          2.24464006	        -26.85688869	        -20.96103258	         -1.28560354	          3.09727892	        -16.66557195	         -3.49355432	          1.37260427	         41.90506138	         -3.79539738	          6.44924709	         -0.23564348	         12.99098220	        -13.72817256	          4.36917354	         -1.55997282	        -13.46345033	         12.21180997	         30.41268702	         20.70568743	          0.43901520	          0.72058343	          0.70851336	          0.45766703	          0.52715607	          0.55302983	          0.36613556	          0.42840848	          0.46345244	          0.29128861	          0.48854013	          0.05538446	          0.10240559	          0.45434682	          0.46847836	          0.51627673	          0.47476512	          0.38736484	          0.30271740	          0.61659430	          0.72447420	          0.62807364	          0.09949241	          0.10144604	          0.79758253	          0.67997898	          0.68778205	          0.42461376	          0.70665665	          0.79507524	          0.09184274	          0.05047201	          0.23028300	          0.32101729	          0.62903111	          0.57956296	          0.53841182	          0.66405217	          0.28842928	          0.12743446	          0.47095810	          0.66371361	          0.64109482	          0.05000848	          0.14465697	          0.05006592	          0.60075726	          0.37380512	          0.46456797	          0.58737044	          0.54422913	          0.51708336	          0.45699091	          0.31153582	          0.30961264	          0.46490737	          0.55116583	          0.66079474	          0.48673254	          0.50529382	          0.51045635	          0.48402165	          0.61893726	          0.54718381	          0.50044355	          0.52844423	          0.51489703	          0.48386693	          0.80605009	          0.81582386	          0.19922213	          0.43675161	          0.43645842	          0.43874387	          0.24761974	          0.26124589	          0.23138087	          0.35053850	          0.50218153	          0.12096147	          0.71940611	          0.62124285	          0.62086610	          0.12459005	          0.29282623	          0.41869806	          0.13244392	          0.05016757	          0.25004232	          0.16141419	          0.05001804	          0.05876982	
          0.81851981	         -1.33863004	         -4.97420924	        -16.48514922	          0.55531454	          0.97948046	          0.00977382	         30.03861550	         -7.08607162	          1.78791545	        -14.66538175	          1.69504578	          0.63056549	        -26.48505536	        -21.07629850	          0.41711069	         -1.79899384	        -16.52352887	         -4.26191730	          1.71001715	         41.80654896	         -2.99148880	          5.27789947	          0.17036127	         11.35574081	        -13.63252792	         10.53545457	         -1.37885351	        -13.62119496	         13.77436268	         20.17686280	         33.34754132	          0.45655711	          0.71935657	          0.69214576	          0.47450920	          0.53412047	          0.55005720	          0.42060179	          0.46081981	          0.50714282	          0.24110000	          0.46158102	          0.05019057	          0.13669765	          0.46571210	          0.48089050	          0.52800201	          0.46602900	          0.39477130	          0.31855424	          0.60745480	          0.70764362	          0.62352805	          0.06616782	          0.06747351	          0.77083948	          0.64697869	          0.65968644	          0.42832432	          0.63526194	          0.72633906	          0.09561708	          0.05039396	          0.22284390	          0.32531534	          0.63203288	          0.57313193	          0.53688035	          0.64657523	          0.29706691	          0.12946610	          0.47791778	          0.62199918	          0.62691721	          0.05016122	          0.09673471	          0.05001135	          0.57071294	          0.34814516	          0.46094461	          0.57520051	          0.53171681	          0.51278835	          0.45658567	          0.31929415	          0.29482705	          0.42369583	          0.54232316	          0.70342215	          0.49088485	          0.50294318	          0.50619688	          0.47545542	          0.59770652	          0.54806005	          0.49885714	          0.52857034	          0.51406590	          0.47685852	          0.78714173	          0.78752802	          0.20994615	          0.44243130	          0.43830488	          0.42642764	          0.23733149	          0.24755807	          0.22752187	          0.36364874	          0.50000794	          0.19059154	          0.67797975	          0.56844781	          0.56917607	          0.25909011	          0.35292692	          0.44107212	          0.15758487	          0.05013121	          0.36481387	          0.16860132	          0.05000467	          0.06303366	
          0.84883536	         -1.96731134	         -4.97456231	        -16.33094600	          0.58008247	          0.98641457	          0.00950870	         28.73450819	         -7.07713520	          0.85345926	        -14.74276424	          1.46690262	         -1.12648863	        -25.70272814	        -21.15575255	          1.88692839	         -6.19159195	        -16.20708984	         -5.06168285	          1.75840790	         39.71129482	         -2.39213124	          4.34344376	          0.61526544	          8.12543800	        -13.49548126	         15.97707599	         -1.11388566	        -13.85885823	         14.66706452	         13.91623268	         46.87026722	          0.46642223	          0.71305571	          0.68290913	          0.48553693	          0.53804162	          0.55053305	          0.46336937	          0.46699660	          0.53477144	          0.21103236	          0.44773200	          0.05027830	          0.16773891	          0.47323664	          0.48672644	          0.52615103	          0.46493409	          0.40692084	          0.33257197	          0.59917704	          0.69067549	          0.61368099	          0.05012903	          0.05015054	          0.73476442	          0.62998211	          0.64538074	          0.44076343	          0.58323049	          0.66395963	          0.09981239	          0.05042739	          0.21513494	          0.32840696	          0.63056937	          0.56677923	          0.53265373	          0.63587326	          0.30568342	          0.13208193	          0.49212496	          0.60805639	          0.62254283	          0.05009985	          0.06455340	          0.05004841	          0.54096743	          0.33704763	          0.46203214	          0.55658549	          0.51703049	          0.50745049	          0.45363288	          0.29133795	          0.28005755	          0.40182944	          0.53888608	          0.72933119	          0.49128122	          0.50544809	          0.50592846	          0.47464685	          0.58178614	          0.54600939	          0.49042934	          0.52827714	          0.51515539	          0.47779269	          0.77783488	          0.76472176	          0.25056223	          0.45438043	          0.44167255	          0.43546208	          0.23060211	          0.24048299	          0.23254004	          0.37406617	          0.49597658	          0.21318384	          0.66240833	          0.53092890	          0.53637067	          0.35382543	          0.38916786	          0.44781695	          0.39904340	          0.05010309	          0.45695132	          0.16899886	          0.05005337	          0.07257808	
